<?xml version="1.0" standalone="no"?><!DOCTYPE svg PUBLIC "-//W3C//DTD SVG 1.1//EN" "http://www.w3.org/Graphics/SVG/1.1/DTD/svg11.dtd"><svg class="icon" width="120px" height="120.00px" viewBox="0 0 1024 1024" version="1.1" xmlns="http://www.w3.org/2000/svg"><path d="M51.2 0h921.6a51.2 51.2 0 0 1 51.2 51.2v921.6a51.2 51.2 0 0 1-51.2 51.2H51.2a51.2 51.2 0 0 1-51.2-51.2V51.2a51.2 51.2 0 0 1 51.2-51.2z" fill="#7B83D5" /><path d="M623.7184 677.248l-65.1776 81.4336-65.152-81.4336h-121.0368a23.296 23.296 0 0 1-23.2704-23.296V400.384a23.296 23.296 0 0 1 23.296-23.296H744.704a23.296 23.296 0 0 1 23.2704 23.296v253.5936a23.296 23.296 0 0 1-23.296 23.296h-120.9856zM279.2704 281.6h395.648v46.5408H302.5408v256H256V304.896a23.296 23.296 0 0 1 23.296-23.2704z" fill="#FFFFFF" /></svg>