<?xml version="1.0" standalone="no"?><!DOCTYPE svg PUBLIC "-//W3C//DTD SVG 1.1//EN" "http://www.w3.org/Graphics/SVG/1.1/DTD/svg11.dtd"><svg class="icon" width="120px" height="120.00px" viewBox="0 0 1024 1024" version="1.1" xmlns="http://www.w3.org/2000/svg"><path d="M51.2 0h921.6a51.2 51.2 0 0 1 51.2 51.2v921.6a51.2 51.2 0 0 1-51.2 51.2H51.2a51.2 51.2 0 0 1-51.2-51.2V51.2a51.2 51.2 0 0 1 51.2-51.2z" fill="#A971EB" /><path d="M332.8 281.6v409.6h409.6v51.2H281.6V281.6h51.2z m391.5008 84.3008l36.1984 36.1984L614.4 548.1984l-76.8-76.7744-109.9008 109.8752-36.1984-36.1984L537.6 399.0016l76.8 76.7744 109.9008-109.8752z" fill="#FFFFFF" /></svg>