<?xml version="1.0" standalone="no"?><!DOCTYPE svg PUBLIC "-//W3C//DTD SVG 1.1//EN" "http://www.w3.org/Graphics/SVG/1.1/DTD/svg11.dtd"><svg class="icon" width="120px" height="120.00px" viewBox="0 0 1024 1024" version="1.1" xmlns="http://www.w3.org/2000/svg"><path d="M51.2 0h921.6a51.2 51.2 0 0 1 51.2 51.2v921.6a51.2 51.2 0 0 1-51.2 51.2H51.2a51.2 51.2 0 0 1-51.2-51.2V51.2a51.2 51.2 0 0 1 51.2-51.2z" fill="#A971EB" /><path d="M486.4 230.4c162.5856 0 294.4 131.8144 294.4 294.4 0 8.6272-0.384 17.152-1.1008 25.6h-38.5536c-12.8512 129.3568-122.0096 230.4-254.7456 230.4-141.3888 0-256-114.6112-256-256 0-132.736 101.0432-241.8944 230.4-254.72V231.4752c8.448-0.7424 16.9728-1.1008 25.6-1.1008z m-25.6 91.1872A204.8256 204.8256 0 0 0 486.4 729.6a204.8256 204.8256 0 0 0 203.2128-179.2H460.8v-228.8128z m51.2-38.656V499.2h216.2688A243.2768 243.2768 0 0 0 512 282.9312z" fill="#FFFFFF" /></svg>