<?xml version="1.0" standalone="no"?><!DOCTYPE svg PUBLIC "-//W3C//DTD SVG 1.1//EN" "http://www.w3.org/Graphics/SVG/1.1/DTD/svg11.dtd"><svg class="icon" width="120px" height="120.00px" viewBox="0 0 1024 1024" version="1.1" xmlns="http://www.w3.org/2000/svg"><path d="M51.2 0h921.6a51.2 51.2 0 0 1 51.2 51.2v921.6a51.2 51.2 0 0 1-51.2 51.2H51.2a51.2 51.2 0 0 1-51.2-51.2V51.2a51.2 51.2 0 0 1 51.2-51.2z" fill="#00AE83" /><path d="M281.6 281.6a25.6 25.6 0 0 0-25.6 25.6v409.6a25.6 25.6 0 0 0 25.6 25.6h460.8a25.6 25.6 0 0 0 25.6-25.6V307.2a25.6 25.6 0 0 0-25.6-25.6H281.6z m128 51.2v76.8h-102.4v-76.8h102.4z m-102.4 230.4v-102.4h102.4v102.4h-102.4z m0 51.2h102.4v76.8h-102.4v-76.8z m153.6 0h256v76.8H460.8v-76.8z m256-51.2H460.8v-102.4h256v102.4z m0-230.4v76.8H460.8v-76.8h256z" fill="#FFFFFF" /></svg>